<?xml version="1.0" standalone="no"?><!DOCTYPE svg PUBLIC "-//W3C//DTD SVG 1.1//EN" "http://www.w3.org/Graphics/SVG/1.1/DTD/svg11.dtd"><svg t="1760014901042" class="icon" viewBox="0 0 1024 1024" version="1.1" xmlns="http://www.w3.org/2000/svg" p-id="1653" xmlns:xlink="http://www.w3.org/1999/xlink" width="200" height="200"><path d="M1024 240.94v542.12h-60.24v60.24h-120.46v60.22h-120.48v60.24h-120.46V1024h-180.72v-60.24h-120.46v-60.24H180.7v-60.22H60.24v-60.24H0V240.94h60.24V180.7h120.46V120.48h120.48V60.24h120.46V0h180.72v60.24h120.46v60.24h120.48v60.22h120.46v60.24z" p-id="1654"></path><path d="M933.64 271.06v481.88l-90.34 30.12-120.48 60.24-120.46 60.22L512 933.64l-90.36-30.12-120.46-60.22-120.48-60.24-80.68-30.12V271.06h80.68L512 90.36l331.3 180.7z" fill="#B2D7F3" p-id="1655"></path><path d="M903.52 722.82h-60.22v60.24h120.46v-60.24l-30.12-30.12z" fill="#3D99E1" p-id="1656"></path><path d="M722.82 783.06h120.48v60.24h-120.48zM602.36 843.3h120.46v60.22h-120.46z" fill="#3D99E1" p-id="1657"></path><path d="M542.12 421.64h60.24v-60.22h120.46v-60.24h120.48l30.11-30.12-30.11-30.12-120.48-60.24-120.46-60.22L512 90.36l-90.36 30.12-120.46 60.22-120.48 60.24-30.11 30.12 30.11 30.12h120.48v60.24h120.46v60.22h60.24v481.88h-60.24v60.24h180.72v-60.24h-60.24z" fill="#3D99E1" p-id="1658"></path><path d="M301.18 843.3h120.46v60.22h-120.46zM180.7 783.06h120.48v60.24H180.7zM120.48 722.82l-30.12-30.12-30.12 30.12v60.24h120.46v-60.24z" fill="#3D99E1" p-id="1659"></path><path d="M963.76 240.94v481.88h-60.24V301.18h-60.22v-60.24zM783.06 602.36h60.24v60.22h-60.24zM722.82 662.58h60.24v60.24h-60.24zM662.58 722.82h60.24v60.24h-60.24zM662.58 542.12h60.24v60.24h-60.24zM240.94 542.12h60.24v60.24h-60.24zM180.7 602.36h60.24v60.22H180.7zM722.82 180.7h120.48v60.24h-120.48zM180.7 180.7h120.48v60.24H180.7zM301.18 120.48h120.46v60.22h-120.46zM421.64 60.24h180.72v60.24h-180.72zM602.36 120.48h120.46v60.22h-120.46zM180.7 240.94v60.24H120.48v421.64H60.24V240.94z" fill="#E9F3FB" p-id="1660"></path></svg>